HIERARCHY
ROOT pelvis
{
  OFFSET 0 100 0
  CHANNELS 6 Xposition Yposition Zposition Zrotation Xrotation Yrotation
  JOINT pelvis_right_femur
  {
    OFFSET -10.78128 -3.44521 -0.5502486
    CHANNELS 3 Zrotation Xrotation Yrotation
    JOINT right_femur_tibia
    {
      OFFSET -0.8047443 -44.0398 -0.1307829
      CHANNELS 3 Zrotation Xrotation Yrotation
      JOINT right_tibia_foot
      {
        OFFSET 3.006224 -47.83518 -5
        CHANNELS 3 Zrotation Xrotation Yrotation
        End Site
        {
          OFFSET 0 -5 15
        }
      }
    }
  }
  JOINT pelvis_left_femur
  {
    OFFSET 10.78128 -3.44521 -0.5502486
    CHANNELS 3 Zrotation Xrotation Yrotation
    JOINT left_femur_tibia
    {
      OFFSET 0.8047443 -44.0398 -0.1307829
      CHANNELS 3 Zrotation Xrotation Yrotation
      JOINT left_tibia_foot
      {
        OFFSET -4.370144 -48.10324 -4.275266
        CHANNELS 3 Zrotation Xrotation Yrotation
        End Site
        {
          OFFSET 0 -5 15
        }
      }
    }
  }
  JOINT pelvis_spine1
  {
    OFFSET 0 6.468898 -3.129235
    CHANNELS 3 Zrotation Xrotation Yrotation
    JOINT spine1
    {
      OFFSET 0 23.15396 4.99043
      CHANNELS 3 Zrotation Xrotation Yrotation
      JOINT spine2
      {
        OFFSET 0 20.79997 -5.064912
        CHANNELS 3 Zrotation Xrotation Yrotation
        JOINT neck
        {
          OFFSET 0 14.38658 9.616178
          CHANNELS 3 Zrotation Xrotation Yrotation
          End Site
          {
            OFFSET 0 20 0
          }
        }
      }
      JOINT right_manubrium
      {
        OFFSET -5.722621 16.35077 3.967754
        CHANNELS 3 Zrotation Xrotation Yrotation
        JOINT right_clavicle
        {
          OFFSET -13.16364 1.694482 -4.693211
          CHANNELS 3 Zrotation Xrotation Yrotation
          JOINT right_humerus
          {
            OFFSET -28.5034 -0.3100689 -2.792744
            CHANNELS 3 Zrotation Xrotation Yrotation
            JOINT right_radius
            {
              OFFSET -25.15693 0.02248979 -1.271978
              CHANNELS 3 Zrotation Xrotation Yrotation
              End Site
              {
                OFFSET -15 0 0
              }
            }
          }
        }
      }
      JOINT left_manubrium
      {
        OFFSET 5.722621 16.35077 3.967754
        CHANNELS 3 Zrotation Xrotation Yrotation
        JOINT left_clavicle
        {
          OFFSET 13.16364 1.694482 -4.693211
          CHANNELS 3 Zrotation Xrotation Yrotation
          JOINT left_humerus
          {
            OFFSET 29.39168 -1.063119 -2.237045
            CHANNELS 3 Zrotation Xrotation Yrotation
            JOINT left_radius
            {
              OFFSET 24.59957 -0.9528479 0.9047498
              CHANNELS 3 Zrotation Xrotation Yrotation
              End Site
              {
                OFFSET 15 -0 -0
              }
            }
          }
        }
      }
    }
  }
}
MOTION
Frames: 11
Frame Time: 0.0416666666667
-1517.044 100.9814 1245.509 -7.135137 2.843088 -126.765 -2.104155 0.5515595 -5.559684 -0 40.76284 -0 -20.65592 14.78795 8.706981 -7.604866 1.769485 -15.89011 -0 14.4404 -0 1.419258 -12.25543 19.63603 -2.684438 -1.060999 5.750298 -0.89527 9.859284 -4.59296 1.39336 21.02682 7.702152 6.086303 -17.05041 7.285082 5.448441 -18.07511 11.11852 81.07816 36.69105 -9.590628 -0 0 19.38879 -19.69566 12.64108 6.090262 9.841026 -21.62473 -2.762466 -89.13385 9.142131 15.50679 0 0 -11.61676 19.45033 13.11651 -13.73061
-1521.051 101.2443 1243.288 -7.603498 3.157321 -126.5084 -1.555839 -3.361059 -6.575041 -0 34.90708 -0 -20.18828 14.54848 7.927633 -7.277436 4.023532 -14.61977 -0 14.74563 -0 2.92975 -13.64294 19.91345 -2.721577 -1.089744 5.549234 -1.107332 9.521192 -4.559944 1.587154 20.85251 8.199421 6.170695 -16.83784 7.994878 5.446513 -17.32741 11.02156 81.30291 37.18726 -10.025 -0 0 18.85796 -20.73692 14.2301 6.059523 10.57829 -21.88 -2.534084 -88.24909 8.552771 13.39733 0 0 -13.88887 20.50372 13.20213 -15.21849
-1524.968 101.136 1240.955 -7.976217 3.429262 -126.4281 -0.9588469 -6.741632 -7.387444 -0 28.54603 -0 -19.74414 14.01097 7.185142 -7.007889 6.399456 -13.61897 -0 15.25379 -0 4.394701 -14.88122 20.48276 -2.75061 -1.119639 5.376331 -1.317761 9.211882 -4.5178 1.770292 20.70076 8.648944 6.241634 -16.60562 8.63963 5.43631 -16.66558 10.93413 81.49955 37.62862 -10.39202 -0 0 18.42427 -21.74021 15.72764 6.073363 11.24512 -22.10657 -2.339133 -87.48388 8.028163 11.52065 0 0 -15.96737 21.40457 13.30556 -16.50178
-1528.807 100.7329 1238.5 -8.087229 3.599585 -126.5522 -0.2941395 -9.735385 -7.818582 -0 22.66939 -0 -19.18061 13.17228 6.43001 -6.801969 8.63486 -12.96068 -0 15.86221 -0 5.700762 -15.97038 21.16595 -2.768105 -1.154654 5.259518 -1.490838 8.982986 -4.486372 1.911481 20.57478 8.995784 6.30353 -16.40674 9.127123 5.4259 -16.17763 10.87153 81.6566 37.95529 -10.69065 -0 0 18.14422 -22.52048 16.88786 6.068393 11.77462 -22.29992 -2.202293 -86.92121 7.586866 10.10054 0 0 -17.61015 22.11141 13.38067 -17.51547
-1532.559 100.1319 1235.946 -7.837234 3.644505 -126.8587 0.4777695 -12.49001 -7.715607 -0 18.10027 -0 -18.33222 11.95123 5.537555 -6.616448 10.51851 -12.62508 -0 16.46081 -0 6.787922 -16.86857 21.76571 -2.771616 -1.199553 5.219602 -1.597518 8.8731 -4.483087 1.987682 20.46973 9.202666 6.361466 -16.29042 9.395054 5.423045 -15.92611 10.84538 81.76546 38.12504 -10.9266 -0 0 18.05771 -22.92939 17.53369 5.980437 12.1232 -22.45933 -2.135771 -86.61212 7.233836 9.290636 0 0 -18.64895 22.61101 13.3831 -18.23479
-1536.208 99.43282 1233.33 -7.206962 3.566208 -127.2856 1.383091 -15.10942 -7.057824 -0 15.22013 -0 -17.18678 10.34946 4.470736 -6.398023 11.92316 -12.52251 -0 16.98974 -0 7.621847 -17.52364 22.09351 -2.759736 -1.259728 5.264127 -1.622525 8.896646 -4.519631 1.991089 20.37486 9.257872 6.417128 -16.28723 9.427149 5.433142 -15.933 10.86024 81.82508 38.12416 -11.11353 -0 0 18.18104 -22.89549 17.60468 5.770247 12.28043 -22.58749 -2.13686 -86.56724 6.965571 9.13788 0 0 -19.03361 22.91357 13.28908 -18.6701
-1539.752 98.72309 1230.686 -6.254784 3.38813 -127.7529 2.415141 -17.62193 -5.986432 -0 13.88048 -0 -15.90912 8.534216 3.326726 -6.112061 12.81457 -12.51838 -0 17.49236 -0 8.18178 -17.90191 22.01307 -2.732531 -1.339298 5.384871 -1.56615 9.040746 -4.600216 1.929972 20.27885 9.174985 6.467257 -16.40261 9.252785 5.458164 -16.17602 10.91239 81.84407 37.9688 -11.2718 -0 0 18.50148 -22.4353 17.15755 5.436701 12.26753 -22.6888 -2.190273 -86.75892 6.777672 9.578452 0 0 -18.83372 23.04426 13.10449 -18.85518
-1543.218 98.07115 1228.023 -5.093105 3.150629 -128.1872 3.532072 -19.97393 -4.742235 -0 13.57179 -0 -14.74016 6.797344 2.269391 -5.751539 13.23632 -12.47191 -0 18.12989 -0 8.456741 -17.99031 21.46838 -2.691992 -1.438595 5.560339 -1.440958 9.271058 -4.721415 1.823774 20.17509 8.985723 6.505284 -16.62075 8.932443 5.496741 -16.59774 10.99134 81.83781 37.69729 -11.42285 -0 0 18.97746 -21.63315 16.32794 5.01131 12.12625 -22.76654 -2.273531 -87.13245 6.670794 10.46693 0 0 -18.20061 23.03426 12.86024 -18.83359
-1546.662 97.5288 1225.32 -3.853183 2.904107 -128.5404 4.66944 -22.04399 -3.563279 -0 13.7176 -0 -13.88108 5.42523 1.433744 -5.326821 13.27189 -12.2763 -0 19.14472 -0 8.444112 -17.77266 20.47863 -2.641961 -1.552885 5.762178 -1.266001 9.543394 -4.873449 1.695646 20.06412 8.729571 6.524509 -16.91444 8.537082 5.545062 -17.12343 11.0833 81.82238 37.35761 -11.58171 -0 0 19.54682 -20.60582 15.27831 4.542206 11.90383 -22.82088 -2.363138 -87.6221 6.65161 11.62422 0 0 -17.31166 22.9136 12.59868 -18.64755
-1550.158 97.1386 1222.534 -2.655928 2.699977 -128.7957 5.759417 -23.66269 -2.60528 -0 13.90953 -0 -13.4389 4.56983 0.8757359 -4.850478 12.99695 -11.8841 -0 20.80027 -0 8.148864 -17.20505 19.11456 -2.587446 -1.67306 5.962418 -1.061516 9.815722 -5.042483 1.566013 19.95295 8.444383 6.520626 -17.25444 8.130227 5.59807 -17.67981 11.17498 81.8092 36.99575 -11.75173 -0 0 20.14011 -19.47171 14.15614 4.079516 11.64082 -22.8487 -2.439782 -88.16565 6.72903 12.88268 0 0 -16.32296 22.70673 12.35959 -18.33122
-1553.779 96.94245 1219.616 -1.59879 2.581982 -128.9647 6.747179 -24.63201 -1.91305 -0 13.99461 -0 -13.42949 4.191536 0.575009 -4.329963 12.43738 -11.31189 -0 23.33042 -0 7.585612 -16.21411 17.48148 -2.533651 -1.787658 6.13884 -0.8457542 10.05649 -5.21319 1.448994 19.85257 8.16025 6.492689 -17.61413 7.757264 5.65055 -18.20825 11.25623 81.80284 36.64847 -11.92373 -0 0 20.69373 -18.33367 13.07245 3.667292 11.36463 -22.84525 -2.491798 -88.7134 6.908605 14.11434 0 0 -15.34367 22.43054 12.17172 -17.90825
